<?xml version="1.0" encoding="UTF-8" standalone="no"?>
<!DOCTYPE svg PUBLIC "-//W3C//DTD SVG 1.1//EN"
 "http://www.w3.org/Graphics/SVG/1.1/DTD/svg11.dtd">
<!-- Generated by graphviz version 12.2.1 (20241206.2353)
 -->
<!-- Title: dependency&#45;cruiser output Pages: 1 -->
<svg width="685pt" height="472pt"
 viewBox="0.00 0.00 684.62 472.00" xmlns="http://www.w3.org/2000/svg" xmlns:xlink="http://www.w3.org/1999/xlink">
<g id="graph0" class="graph" transform="scale(1 1) rotate(0) translate(4 468)">
<title>dependency&#45;cruiser output</title>
<polygon fill="white" stroke="none" points="-4,4 -4,-468 680.62,-468 680.62,4 -4,4"/>
<g id="clust1" class="cluster">
<title>cluster_src</title>
<path fill="#ffffff" stroke="black" stroke-width="2" d="M20,-8C20,-8 656.62,-8 656.62,-8 662.62,-8 668.62,-14 668.62,-20 668.62,-20 668.62,-444 668.62,-444 668.62,-450 662.62,-456 656.62,-456 656.62,-456 20,-456 20,-456 14,-456 8,-450 8,-444 8,-444 8,-20 8,-20 8,-14 14,-8 20,-8"/>
<text text-anchor="middle" x="338.31" y="-443.45" font-family="Helvetica,sans-Serif" font-weight="bold" font-size="9.00">src</text>
</g>
<g id="clust2" class="cluster">
<title>cluster_src/user</title>
<path fill="#ffffff" stroke="black" stroke-width="2" d="M206,-70C206,-70 648.62,-70 648.62,-70 654.62,-70 660.62,-76 660.62,-82 660.62,-82 660.62,-392 660.62,-392 660.62,-398 654.62,-404 648.62,-404 648.62,-404 206,-404 206,-404 200,-404 194,-398 194,-392 194,-392 194,-82 194,-82 194,-76 200,-70 206,-70"/>
<text text-anchor="middle" x="427.31" y="-391.45" font-family="Helvetica,sans-Serif" font-weight="bold" font-size="9.00">user</text>
</g>
<g id="clust3" class="cluster">
<title>cluster_src/user/adapter</title>
<path fill="#ffffff" stroke="black" stroke-width="2" d="M300.62,-232C300.62,-232 494.12,-232 494.12,-232 500.12,-232 506.12,-238 506.12,-244 506.12,-244 506.12,-366 506.12,-366 506.12,-372 500.12,-378 494.12,-378 494.12,-378 300.62,-378 300.62,-378 294.62,-378 288.62,-372 288.62,-366 288.62,-366 288.62,-244 288.62,-244 288.62,-238 294.62,-232 300.62,-232"/>
<text text-anchor="middle" x="397.38" y="-365.45" font-family="Helvetica,sans-Serif" font-weight="bold" font-size="9.00">adapter</text>
</g>
<g id="clust4" class="cluster">
<title>cluster_src/user/adapter/in</title>
<path fill="#ffffff" stroke="black" stroke-width="2" d="M309.75,-240C309.75,-240 481.62,-240 481.62,-240 487.62,-240 493.62,-246 493.62,-252 493.62,-252 493.62,-280 493.62,-280 493.62,-286 487.62,-292 481.62,-292 481.62,-292 309.75,-292 309.75,-292 303.75,-292 297.75,-286 297.75,-280 297.75,-280 297.75,-252 297.75,-252 297.75,-246 303.75,-240 309.75,-240"/>
<text text-anchor="middle" x="395.69" y="-279.45" font-family="Helvetica,sans-Serif" font-weight="bold" font-size="9.00">in</text>
</g>
<g id="clust5" class="cluster">
<title>cluster_src/user/adapter/out</title>
<path fill="#ffffff" stroke="black" stroke-width="2" d="M308.62,-300C308.62,-300 486.12,-300 486.12,-300 492.12,-300 498.12,-306 498.12,-312 498.12,-312 498.12,-340 498.12,-340 498.12,-346 492.12,-352 486.12,-352 486.12,-352 308.62,-352 308.62,-352 302.62,-352 296.62,-346 296.62,-340 296.62,-340 296.62,-312 296.62,-312 296.62,-306 302.62,-300 308.62,-300"/>
<text text-anchor="middle" x="397.38" y="-339.45" font-family="Helvetica,sans-Serif" font-weight="bold" font-size="9.00">out</text>
</g>
<g id="clust6" class="cluster">
<title>cluster_src/user/domain</title>
<path fill="#ffffff" stroke="black" stroke-width="2" d="M314.25,-116C314.25,-116 380.75,-116 380.75,-116 386.75,-116 392.75,-122 392.75,-128 392.75,-128 392.75,-156 392.75,-156 392.75,-162 386.75,-168 380.75,-168 380.75,-168 314.25,-168 314.25,-168 308.25,-168 302.25,-162 302.25,-156 302.25,-156 302.25,-128 302.25,-128 302.25,-122 308.25,-116 314.25,-116"/>
<text text-anchor="middle" x="347.5" y="-155.45" font-family="Helvetica,sans-Serif" font-weight="bold" font-size="9.00">domain</text>
</g>
<g id="clust7" class="cluster">
<title>cluster_src/user/port</title>
<path fill="#ffffff" stroke="black" stroke-width="2" d="M412.75,-78C412.75,-78 640.62,-78 640.62,-78 646.62,-78 652.62,-84 652.62,-90 652.62,-90 652.62,-212 652.62,-212 652.62,-218 646.62,-224 640.62,-224 640.62,-224 412.75,-224 412.75,-224 406.75,-224 400.75,-218 400.75,-212 400.75,-212 400.75,-90 400.75,-90 400.75,-84 406.75,-78 412.75,-78"/>
<text text-anchor="middle" x="526.69" y="-211.45" font-family="Helvetica,sans-Serif" font-weight="bold" font-size="9.00">port</text>
</g>
<g id="clust8" class="cluster">
<title>cluster_src/user/port/in</title>
<path fill="#ffffff" stroke="black" stroke-width="2" d="M420.75,-86C420.75,-86 632.62,-86 632.62,-86 638.62,-86 644.62,-92 644.62,-98 644.62,-98 644.62,-126 644.62,-126 644.62,-132 638.62,-138 632.62,-138 632.62,-138 420.75,-138 420.75,-138 414.75,-138 408.75,-132 408.75,-126 408.75,-126 408.75,-98 408.75,-98 408.75,-92 414.75,-86 420.75,-86"/>
<text text-anchor="middle" x="526.69" y="-125.45" font-family="Helvetica,sans-Serif" font-weight="bold" font-size="9.00">in</text>
</g>
<g id="clust9" class="cluster">
<title>cluster_src/user/port/out</title>
<path fill="#ffffff" stroke="black" stroke-width="2" d="M432.75,-146C432.75,-146 612,-146 612,-146 618,-146 624,-152 624,-158 624,-158 624,-186 624,-186 624,-192 618,-198 612,-198 612,-198 432.75,-198 432.75,-198 426.75,-198 420.75,-192 420.75,-186 420.75,-186 420.75,-158 420.75,-158 420.75,-152 426.75,-146 432.75,-146"/>
<text text-anchor="middle" x="522.38" y="-185.45" font-family="Helvetica,sans-Serif" font-weight="bold" font-size="9.00">out</text>
</g>
<!-- src/app.controller.spec.ts -->
<g id="node1" class="node">
<title>src/app.controller.spec.ts</title>
<g id="a_node1"><a xlink:href="src/app.controller.spec.ts" xlink:title="app.controller.spec.ts">
<path fill="#ddfeff" stroke="black" d="M180.08,-41.88C180.08,-41.88 88.92,-41.88 88.92,-41.88 85.96,-41.88 83,-38.92 83,-35.96 83,-35.96 83,-30.04 83,-30.04 83,-27.08 85.96,-24.12 88.92,-24.12 88.92,-24.12 180.08,-24.12 180.08,-24.12 183.04,-24.12 186,-27.08 186,-30.04 186,-30.04 186,-35.96 186,-35.96 186,-38.92 183.04,-41.88 180.08,-41.88"/>
<text text-anchor="start" x="91" y="-29.32" font-family="Helvetica,sans-Serif" font-size="9.00">app.controller.spec.ts</text>
</a>
</g>
</g>
<!-- src/app.controller.ts -->
<g id="node2" class="node">
<title>src/app.controller.ts</title>
<g id="a_node2"><a xlink:href="src/app.controller.ts" xlink:title="app.controller.ts">
<path fill="#ddfeff" stroke="black" d="M274.71,-47.88C274.71,-47.88 205.29,-47.88 205.29,-47.88 202.33,-47.88 199.38,-44.92 199.38,-41.96 199.38,-41.96 199.38,-36.04 199.38,-36.04 199.38,-33.08 202.33,-30.12 205.29,-30.12 205.29,-30.12 274.71,-30.12 274.71,-30.12 277.67,-30.12 280.62,-33.08 280.62,-36.04 280.62,-36.04 280.62,-41.96 280.62,-41.96 280.62,-44.92 277.67,-47.88 274.71,-47.88"/>
<text text-anchor="start" x="207.38" y="-35.33" font-family="Helvetica,sans-Serif" font-size="9.00">app.controller.ts</text>
</a>
</g>
</g>
<!-- src/app.controller.spec.ts&#45;&gt;src/app.controller.ts -->
<g id="edge1" class="edge">
<title>src/app.controller.spec.ts&#45;&gt;src/app.controller.ts</title>
<path fill="none" stroke="#000000" stroke-width="2" stroke-opacity="0.200000" d="M186.34,-35.95C187.68,-36.03 189.03,-36.1 190.37,-36.18"/>
<polygon fill="#000000" fill-opacity="0.200000" stroke="#000000" stroke-width="2" stroke-opacity="0.200000" points="190,-38.26 196.11,-36.51 190.24,-34.07 190,-38.26"/>
</g>
<!-- src/app.service.ts -->
<g id="node3" class="node">
<title>src/app.service.ts</title>
<g id="a_node3"><a xlink:href="src/app.service.ts" xlink:title="app.service.ts">
<path fill="#ddfeff" stroke="black" d="M377.71,-47.88C377.71,-47.88 317.29,-47.88 317.29,-47.88 314.33,-47.88 311.38,-44.92 311.38,-41.96 311.38,-41.96 311.38,-36.04 311.38,-36.04 311.38,-33.08 314.33,-30.12 317.29,-30.12 317.29,-30.12 377.71,-30.12 377.71,-30.12 380.67,-30.12 383.62,-33.08 383.62,-36.04 383.62,-36.04 383.62,-41.96 383.62,-41.96 383.62,-44.92 380.67,-47.88 377.71,-47.88"/>
<text text-anchor="start" x="319.38" y="-35.33" font-family="Helvetica,sans-Serif" font-size="9.00">app.service.ts</text>
</a>
</g>
</g>
<!-- src/app.controller.spec.ts&#45;&gt;src/app.service.ts -->
<g id="edge2" class="edge">
<title>src/app.controller.spec.ts&#45;&gt;src/app.service.ts</title>
<path fill="none" stroke="#000000" stroke-width="2" stroke-opacity="0.200000" d="M186.5,-24.69C189.03,-24.42 191.54,-24.19 194,-24 232.39,-21.06 242.37,-19.7 280.62,-24 288.08,-24.84 295.92,-26.19 303.5,-27.76"/>
<polygon fill="#000000" fill-opacity="0.200000" stroke="#000000" stroke-width="2" stroke-opacity="0.200000" points="302.95,-29.79 309.26,-29.02 303.85,-25.68 302.95,-29.79"/>
</g>
<!-- src/app.controller.ts&#45;&gt;src/app.service.ts -->
<g id="edge3" class="edge">
<title>src/app.controller.ts&#45;&gt;src/app.service.ts</title>
<path fill="none" stroke="#000000" stroke-width="2" stroke-opacity="0.200000" d="M280.89,-39C287.86,-39 295.15,-39 302.24,-39"/>
<polygon fill="#000000" fill-opacity="0.200000" stroke="#000000" stroke-width="2" stroke-opacity="0.200000" points="302.03,-41.1 308.03,-39 302.03,-36.9 302.03,-41.1"/>
</g>
<!-- src/app.module.ts -->
<g id="node4" class="node">
<title>src/app.module.ts</title>
<g id="a_node4"><a xlink:href="src/app.module.ts" xlink:title="app.module.ts">
<path fill="#ddfeff" stroke="black" d="M165.46,-74.88C165.46,-74.88 103.54,-74.88 103.54,-74.88 100.58,-74.88 97.62,-71.92 97.62,-68.96 97.62,-68.96 97.62,-63.04 97.62,-63.04 97.62,-60.08 100.58,-57.12 103.54,-57.12 103.54,-57.12 165.46,-57.12 165.46,-57.12 168.42,-57.12 171.38,-60.08 171.38,-63.04 171.38,-63.04 171.38,-68.96 171.38,-68.96 171.38,-71.92 168.42,-74.88 165.46,-74.88"/>
<text text-anchor="start" x="105.62" y="-62.33" font-family="Helvetica,sans-Serif" font-size="9.00">app.module.ts</text>
</a>
</g>
</g>
<!-- src/app.module.ts&#45;&gt;src/app.controller.ts -->
<g id="edge4" class="edge">
<title>src/app.module.ts&#45;&gt;src/app.controller.ts</title>
<path fill="none" stroke="#000000" stroke-width="2" stroke-opacity="0.200000" d="M171.41,-56.63C178.96,-54.66 187,-52.57 194.81,-50.53"/>
<polygon fill="#000000" fill-opacity="0.200000" stroke="#000000" stroke-width="2" stroke-opacity="0.200000" points="194.95,-52.66 200.23,-49.12 193.89,-48.6 194.95,-52.66"/>
</g>
<!-- src/app.module.ts&#45;&gt;src/app.service.ts -->
<g id="edge5" class="edge">
<title>src/app.module.ts&#45;&gt;src/app.service.ts</title>
<path fill="none" stroke="#000000" stroke-width="2" stroke-opacity="0.200000" d="M171.75,-64.43C201.21,-62.81 243.77,-59.69 280.62,-54 287.79,-52.89 295.34,-51.45 302.66,-49.89"/>
<polygon fill="#000000" fill-opacity="0.200000" stroke="#000000" stroke-width="2" stroke-opacity="0.200000" points="302.76,-52.02 308.17,-48.67 301.85,-47.92 302.76,-52.02"/>
</g>
<!-- src/schema.ts -->
<g id="node5" class="node">
<title>src/schema.ts</title>
<g id="a_node5"><a xlink:href="src/schema.ts" xlink:title="schema.ts">
<path fill="#ddfeff" stroke="black" d="M370.21,-429.88C370.21,-429.88 324.79,-429.88 324.79,-429.88 321.83,-429.88 318.88,-426.92 318.88,-423.96 318.88,-423.96 318.88,-418.04 318.88,-418.04 318.88,-415.08 321.83,-412.12 324.79,-412.12 324.79,-412.12 370.21,-412.12 370.21,-412.12 373.17,-412.12 376.12,-415.08 376.12,-418.04 376.12,-418.04 376.12,-423.96 376.12,-423.96 376.12,-426.92 373.17,-429.88 370.21,-429.88"/>
<text text-anchor="start" x="326.88" y="-417.32" font-family="Helvetica,sans-Serif" font-size="9.00">schema.ts</text>
</a>
</g>
</g>
<!-- src/app.module.ts&#45;&gt;src/schema.ts -->
<g id="edge6" class="edge">
<title>src/app.module.ts&#45;&gt;src/schema.ts</title>
<path fill="none" stroke="#000000" stroke-width="2" stroke-opacity="0.200000" d="M135.64,-75.35C136.57,-125.32 143.61,-360.41 194,-407 224.73,-435.42 275.34,-434.18 309.75,-429.01"/>
<polygon fill="#000000" fill-opacity="0.200000" stroke="#000000" stroke-width="2" stroke-opacity="0.200000" points="310,-431.1 315.58,-428.04 309.32,-426.95 310,-431.1"/>
</g>
<!-- src/user/user.module.ts -->
<g id="node6" class="node">
<title>src/user/user.module.ts</title>
<g id="a_node6"><a xlink:href="src/user/user.module.ts" xlink:title="user.module.ts">
<path fill="#ddfeff" stroke="black" d="M272.08,-203.88C272.08,-203.88 207.92,-203.88 207.92,-203.88 204.96,-203.88 202,-200.92 202,-197.96 202,-197.96 202,-192.04 202,-192.04 202,-189.08 204.96,-186.12 207.92,-186.12 207.92,-186.12 272.08,-186.12 272.08,-186.12 275.04,-186.12 278,-189.08 278,-192.04 278,-192.04 278,-197.96 278,-197.96 278,-200.92 275.04,-203.88 272.08,-203.88"/>
<text text-anchor="start" x="210" y="-191.32" font-family="Helvetica,sans-Serif" font-size="9.00">user.module.ts</text>
</a>
</g>
</g>
<!-- src/app.module.ts&#45;&gt;src/user/user.module.ts -->
<g id="edge7" class="edge">
<title>src/app.module.ts&#45;&gt;src/user/user.module.ts</title>
<path fill="none" stroke="#000000" stroke-width="2" stroke-opacity="0.200000" d="M137.45,-75.1C142.62,-96.96 158.76,-152.77 194,-182 194.15,-182.12 194.3,-182.25 194.45,-182.37"/>
<polygon fill="#000000" fill-opacity="0.200000" stroke="#000000" stroke-width="2" stroke-opacity="0.200000" points="193.11,-184 199.3,-185.44 195.36,-180.46 193.11,-184"/>
</g>
<!-- src/user/adapter/out/user.entity.ts -->
<g id="node8" class="node">
<title>src/user/adapter/out/user.entity.ts</title>
<g id="a_node8"><a xlink:href="src/user/adapter/out/user.entity.ts" xlink:title="user.entity.ts">
<path fill="#ddfeff" stroke="black" d="M484.21,-325.88C484.21,-325.88 429.04,-325.88 429.04,-325.88 426.08,-325.88 423.12,-322.92 423.12,-319.96 423.12,-319.96 423.12,-314.04 423.12,-314.04 423.12,-311.08 426.08,-308.12 429.04,-308.12 429.04,-308.12 484.21,-308.12 484.21,-308.12 487.17,-308.12 490.12,-311.08 490.12,-314.04 490.12,-314.04 490.12,-319.96 490.12,-319.96 490.12,-322.92 487.17,-325.88 484.21,-325.88"/>
<text text-anchor="start" x="431.12" y="-313.32" font-family="Helvetica,sans-Serif" font-size="9.00">user.entity.ts</text>
</a>
</g>
</g>
<!-- src/schema.ts&#45;&gt;src/user/adapter/out/user.entity.ts -->
<g id="edge9" class="edge">
<title>src/schema.ts&#45;&gt;src/user/adapter/out/user.entity.ts</title>
<path fill="none" stroke="#000000" stroke-width="2" stroke-opacity="0.200000" d="M358.01,-411.77C376.38,-393.93 416.96,-354.54 439.58,-332.57"/>
<polygon fill="#000000" fill-opacity="0.200000" stroke="#000000" stroke-width="2" stroke-opacity="0.200000" points="440.97,-334.15 443.81,-328.47 438.05,-331.14 440.97,-334.15"/>
</g>
<!-- src/user/adapter/in/user.controller.ts -->
<g id="node9" class="node">
<title>src/user/adapter/in/user.controller.ts</title>
<g id="a_node9"><a xlink:href="src/user/adapter/in/user.controller.ts" xlink:title="user.controller.ts">
<path fill="#ddfeff" stroke="black" d="M383.33,-265.88C383.33,-265.88 311.67,-265.88 311.67,-265.88 308.71,-265.88 305.75,-262.92 305.75,-259.96 305.75,-259.96 305.75,-254.04 305.75,-254.04 305.75,-251.08 308.71,-248.12 311.67,-248.12 311.67,-248.12 383.33,-248.12 383.33,-248.12 386.29,-248.12 389.25,-251.08 389.25,-254.04 389.25,-254.04 389.25,-259.96 389.25,-259.96 389.25,-262.92 386.29,-265.88 383.33,-265.88"/>
<text text-anchor="start" x="313.75" y="-253.32" font-family="Helvetica,sans-Serif" font-size="9.00">user.controller.ts</text>
</a>
</g>
</g>
<!-- src/user/user.module.ts&#45;&gt;src/user/adapter/in/user.controller.ts -->
<g id="edge21" class="edge">
<title>src/user/user.module.ts&#45;&gt;src/user/adapter/in/user.controller.ts</title>
<path fill="none" stroke="#000000" stroke-width="2" stroke-opacity="0.200000" d="M272.53,-204.3C275.32,-205.43 278.05,-206.67 280.62,-208 298.61,-217.32 316.93,-231.39 329.66,-242.07"/>
<polygon fill="#000000" fill-opacity="0.200000" stroke="#000000" stroke-width="2" stroke-opacity="0.200000" points="328.25,-243.63 334.18,-245.93 330.98,-240.44 328.25,-243.63"/>
</g>
<!-- src/user/adapter/out/user.repository.ts -->
<g id="node13" class="node">
<title>src/user/adapter/out/user.repository.ts</title>
<g id="a_node13"><a xlink:href="src/user/adapter/out/user.repository.ts" xlink:title="user.repository.ts">
<path fill="#ddfeff" stroke="black" d="M384.46,-325.88C384.46,-325.88 310.54,-325.88 310.54,-325.88 307.58,-325.88 304.62,-322.92 304.62,-319.96 304.62,-319.96 304.62,-314.04 304.62,-314.04 304.62,-311.08 307.58,-308.12 310.54,-308.12 310.54,-308.12 384.46,-308.12 384.46,-308.12 387.42,-308.12 390.38,-311.08 390.38,-314.04 390.38,-314.04 390.38,-319.96 390.38,-319.96 390.38,-322.92 387.42,-325.88 384.46,-325.88"/>
<text text-anchor="start" x="312.62" y="-313.32" font-family="Helvetica,sans-Serif" font-size="9.00">user.repository.ts</text>
</a>
</g>
</g>
<!-- src/user/user.module.ts&#45;&gt;src/user/adapter/out/user.repository.ts -->
<g id="edge22" class="edge">
<title>src/user/user.module.ts&#45;&gt;src/user/adapter/out/user.repository.ts</title>
<path fill="none" stroke="#000000" stroke-width="2" stroke-opacity="0.200000" d="M276.98,-204.33C278.31,-205.42 279.54,-206.64 280.62,-208 292.72,-223.18 276.88,-279.54 288.62,-295 291.03,-298.17 293.95,-300.88 297.18,-303.2"/>
<polygon fill="#000000" fill-opacity="0.200000" stroke="#000000" stroke-width="2" stroke-opacity="0.200000" points="295.86,-304.86 302.09,-306.13 298.02,-301.25 295.86,-304.86"/>
</g>
<!-- src/user/domain/user.service.ts -->
<g id="node16" class="node">
<title>src/user/domain/user.service.ts</title>
<g id="a_node16"><a xlink:href="src/user/domain/user.service.ts" xlink:title="user.service.ts">
<path fill="#ddfeff" stroke="black" d="M378.83,-141.88C378.83,-141.88 316.17,-141.88 316.17,-141.88 313.21,-141.88 310.25,-138.92 310.25,-135.96 310.25,-135.96 310.25,-130.04 310.25,-130.04 310.25,-127.08 313.21,-124.12 316.17,-124.12 316.17,-124.12 378.83,-124.12 378.83,-124.12 381.79,-124.12 384.75,-127.08 384.75,-130.04 384.75,-130.04 384.75,-135.96 384.75,-135.96 384.75,-138.92 381.79,-141.88 378.83,-141.88"/>
<text text-anchor="start" x="318.25" y="-129.32" font-family="Helvetica,sans-Serif" font-size="9.00">user.service.ts</text>
</a>
</g>
</g>
<!-- src/user/user.module.ts&#45;&gt;src/user/domain/user.service.ts -->
<g id="edge23" class="edge">
<title>src/user/user.module.ts&#45;&gt;src/user/domain/user.service.ts</title>
<path fill="none" stroke="#000000" stroke-width="2" stroke-opacity="0.200000" d="M272.53,-185.7C275.32,-184.57 278.05,-183.33 280.62,-182 298.61,-172.68 316.93,-158.61 329.66,-147.93"/>
<polygon fill="#000000" fill-opacity="0.200000" stroke="#000000" stroke-width="2" stroke-opacity="0.200000" points="330.98,-149.56 334.18,-144.07 328.25,-146.37 330.98,-149.56"/>
</g>
<!-- src/main.ts -->
<g id="node7" class="node">
<title>src/main.ts</title>
<g id="a_node7"><a xlink:href="src/main.ts" xlink:title="main.ts">
<path fill="#ddfeff" stroke="black" d="M64.08,-74.88C64.08,-74.88 21.92,-74.88 21.92,-74.88 18.96,-74.88 16,-71.92 16,-68.96 16,-68.96 16,-63.04 16,-63.04 16,-60.08 18.96,-57.12 21.92,-57.12 21.92,-57.12 64.08,-57.12 64.08,-57.12 67.04,-57.12 70,-60.08 70,-63.04 70,-63.04 70,-68.96 70,-68.96 70,-71.92 67.04,-74.88 64.08,-74.88"/>
<text text-anchor="start" x="28.38" y="-62.33" font-family="Helvetica,sans-Serif" font-size="9.00">main.ts</text>
</a>
</g>
</g>
<!-- src/main.ts&#45;&gt;src/app.module.ts -->
<g id="edge8" class="edge">
<title>src/main.ts&#45;&gt;src/app.module.ts</title>
<path fill="none" stroke="#000000" stroke-width="2" stroke-opacity="0.200000" d="M70.37,-66C76.05,-66 82.21,-66 88.38,-66"/>
<polygon fill="#000000" fill-opacity="0.200000" stroke="#000000" stroke-width="2" stroke-opacity="0.200000" points="88.34,-68.1 94.34,-66 88.34,-63.9 88.34,-68.1"/>
</g>
<!-- src/user/port/in/user.usecase.command.ts -->
<g id="node10" class="node">
<title>src/user/port/in/user.usecase.command.ts</title>
<g id="a_node10"><a xlink:href="src/user/port/in/user.usecase.command.ts" xlink:title="user.usecase.command.ts">
<path fill="#ddfeff" stroke="black" d="M630.71,-111.88C630.71,-111.88 520.04,-111.88 520.04,-111.88 517.08,-111.88 514.12,-108.92 514.12,-105.96 514.12,-105.96 514.12,-100.04 514.12,-100.04 514.12,-97.08 517.08,-94.12 520.04,-94.12 520.04,-94.12 630.71,-94.12 630.71,-94.12 633.67,-94.12 636.62,-97.08 636.62,-100.04 636.62,-100.04 636.62,-105.96 636.62,-105.96 636.62,-108.92 633.67,-111.88 630.71,-111.88"/>
<text text-anchor="start" x="522.12" y="-99.33" font-family="Helvetica,sans-Serif" font-size="9.00">user.usecase.command.ts</text>
</a>
</g>
</g>
<!-- src/user/adapter/in/user.controller.ts&#45;&gt;src/user/port/in/user.usecase.command.ts -->
<g id="edge10" class="edge">
<title>src/user/adapter/in/user.controller.ts&#45;&gt;src/user/port/in/user.usecase.command.ts</title>
<path fill="none" stroke="#000000" stroke-width="2" stroke-opacity="0.200000" d="M360.3,-247.85C370.48,-240.39 385.86,-230.11 400.75,-224 445.1,-205.81 473.57,-236.19 506.12,-201 523.8,-181.9 500.28,-165.03 514.12,-143 521.17,-131.79 532.62,-123.03 543.67,-116.61"/>
<polygon fill="#000000" fill-opacity="0.200000" stroke="#000000" stroke-width="2" stroke-opacity="0.200000" points="544.62,-118.48 548.9,-113.77 542.63,-114.78 544.62,-118.48"/>
</g>
<!-- src/user/adapter/in/user.dto.ts -->
<g id="node11" class="node">
<title>src/user/adapter/in/user.dto.ts</title>
<g id="a_node11"><a xlink:href="src/user/adapter/in/user.dto.ts" xlink:title="user.dto.ts">
<path fill="#ddfeff" stroke="black" d="M479.71,-265.88C479.71,-265.88 433.54,-265.88 433.54,-265.88 430.58,-265.88 427.62,-262.92 427.62,-259.96 427.62,-259.96 427.62,-254.04 427.62,-254.04 427.62,-251.08 430.58,-248.12 433.54,-248.12 433.54,-248.12 479.71,-248.12 479.71,-248.12 482.67,-248.12 485.62,-251.08 485.62,-254.04 485.62,-254.04 485.62,-259.96 485.62,-259.96 485.62,-262.92 482.67,-265.88 479.71,-265.88"/>
<text text-anchor="start" x="435.62" y="-253.32" font-family="Helvetica,sans-Serif" font-size="9.00">user.dto.ts</text>
</a>
</g>
</g>
<!-- src/user/adapter/in/user.controller.ts&#45;&gt;src/user/adapter/in/user.dto.ts -->
<g id="edge11" class="edge">
<title>src/user/adapter/in/user.controller.ts&#45;&gt;src/user/adapter/in/user.dto.ts</title>
<path fill="none" stroke="#000000" stroke-width="2" stroke-opacity="0.200000" d="M389.61,-257C399.08,-257 409.1,-257 418.4,-257"/>
<polygon fill="#000000" fill-opacity="0.200000" stroke="#000000" stroke-width="2" stroke-opacity="0.200000" points="418.37,-259.1 424.37,-257 418.37,-254.9 418.37,-259.1"/>
</g>
<!-- src/user/port/in/user.usecase.ts -->
<g id="node12" class="node">
<title>src/user/port/in/user.usecase.ts</title>
<g id="a_node12"><a xlink:href="src/user/port/in/user.usecase.ts" xlink:title="user.usecase.ts">
<path fill="#ddfeff" stroke="black" d="M490.58,-111.88C490.58,-111.88 422.67,-111.88 422.67,-111.88 419.71,-111.88 416.75,-108.92 416.75,-105.96 416.75,-105.96 416.75,-100.04 416.75,-100.04 416.75,-97.08 419.71,-94.12 422.67,-94.12 422.67,-94.12 490.58,-94.12 490.58,-94.12 493.54,-94.12 496.5,-97.08 496.5,-100.04 496.5,-100.04 496.5,-105.96 496.5,-105.96 496.5,-108.92 493.54,-111.88 490.58,-111.88"/>
<text text-anchor="start" x="424.75" y="-99.33" font-family="Helvetica,sans-Serif" font-size="9.00">user.usecase.ts</text>
</a>
</g>
</g>
<!-- src/user/adapter/in/user.controller.ts&#45;&gt;src/user/port/in/user.usecase.ts -->
<g id="edge12" class="edge">
<title>src/user/adapter/in/user.controller.ts&#45;&gt;src/user/port/in/user.usecase.ts</title>
<path fill="none" stroke="#000000" stroke-width="2" stroke-opacity="0.200000" d="M354.04,-247.74C363.11,-232.28 381.26,-200.04 392.75,-171 397.51,-158.97 393.34,-153.61 400.75,-143 408.12,-132.45 419.18,-123.62 429.45,-116.97"/>
<polygon fill="#000000" fill-opacity="0.200000" stroke="#000000" stroke-width="2" stroke-opacity="0.200000" points="430.46,-118.81 434.49,-113.89 428.27,-115.23 430.46,-118.81"/>
</g>
<!-- src/user/port/in/user.usecase.ts&#45;&gt;src/user/port/in/user.usecase.command.ts -->
<g id="edge19" class="edge">
<title>src/user/port/in/user.usecase.ts&#45;&gt;src/user/port/in/user.usecase.command.ts</title>
<path fill="none" stroke="#000000" stroke-width="2" stroke-opacity="0.200000" d="M496.83,-103C499.46,-103 502.15,-103 504.87,-103"/>
<polygon fill="#000000" fill-opacity="0.200000" stroke="#000000" stroke-width="2" stroke-opacity="0.200000" points="504.62,-105.1 510.62,-103 504.62,-100.9 504.62,-105.1"/>
</g>
<!-- src/user/adapter/out/user.repository.ts&#45;&gt;src/user/adapter/out/user.entity.ts -->
<g id="edge13" class="edge">
<title>src/user/adapter/out/user.repository.ts&#45;&gt;src/user/adapter/out/user.entity.ts</title>
<path fill="none" stroke="#000000" stroke-width="2" stroke-opacity="0.200000" d="M390.84,-317C398.49,-317 406.46,-317 414.09,-317"/>
<polygon fill="#000000" fill-opacity="0.200000" stroke="#000000" stroke-width="2" stroke-opacity="0.200000" points="413.82,-319.1 419.82,-317 413.82,-314.9 413.82,-319.1"/>
</g>
<!-- src/user/port/out/user.db.ts -->
<g id="node14" class="node">
<title>src/user/port/out/user.db.ts</title>
<g id="a_node14"><a xlink:href="src/user/port/out/user.db.ts" xlink:title="user.db.ts">
<path fill="#ddfeff" stroke="black" d="M478.58,-171.88C478.58,-171.88 434.67,-171.88 434.67,-171.88 431.71,-171.88 428.75,-168.92 428.75,-165.96 428.75,-165.96 428.75,-160.04 428.75,-160.04 428.75,-157.08 431.71,-154.12 434.67,-154.12 434.67,-154.12 478.58,-154.12 478.58,-154.12 481.54,-154.12 484.5,-157.08 484.5,-160.04 484.5,-160.04 484.5,-165.96 484.5,-165.96 484.5,-168.92 481.54,-171.88 478.58,-171.88"/>
<text text-anchor="start" x="436.75" y="-159.32" font-family="Helvetica,sans-Serif" font-size="9.00">user.db.ts</text>
</a>
</g>
</g>
<!-- src/user/adapter/out/user.repository.ts&#45;&gt;src/user/port/out/user.db.ts -->
<g id="edge14" class="edge">
<title>src/user/adapter/out/user.repository.ts&#45;&gt;src/user/port/out/user.db.ts</title>
<path fill="none" stroke="#000000" stroke-width="2" stroke-opacity="0.200000" d="M377.36,-307.83C383.3,-304.67 388.91,-300.48 392.75,-295 410.96,-268.99 387.73,-252.96 400.75,-224 408.93,-205.8 424.58,-189.26 437.09,-178"/>
<polygon fill="#000000" fill-opacity="0.200000" stroke="#000000" stroke-width="2" stroke-opacity="0.200000" points="438.2,-179.82 441.35,-174.3 435.45,-176.65 438.2,-179.82"/>
</g>
<!-- src/user/port/out/user.db.query.ts -->
<g id="node15" class="node">
<title>src/user/port/out/user.db.query.ts</title>
<g id="a_node15"><a xlink:href="src/user/port/out/user.db.query.ts" xlink:title="user.db.query.ts">
<path fill="#ddfeff" stroke="black" d="M610.08,-171.88C610.08,-171.88 540.67,-171.88 540.67,-171.88 537.71,-171.88 534.75,-168.92 534.75,-165.96 534.75,-165.96 534.75,-160.04 534.75,-160.04 534.75,-157.08 537.71,-154.12 540.67,-154.12 540.67,-154.12 610.08,-154.12 610.08,-154.12 613.04,-154.12 616,-157.08 616,-160.04 616,-160.04 616,-165.96 616,-165.96 616,-168.92 613.04,-171.88 610.08,-171.88"/>
<text text-anchor="start" x="542.75" y="-159.32" font-family="Helvetica,sans-Serif" font-size="9.00">user.db.query.ts</text>
</a>
</g>
</g>
<!-- src/user/adapter/out/user.repository.ts&#45;&gt;src/user/port/out/user.db.query.ts -->
<g id="edge15" class="edge">
<title>src/user/adapter/out/user.repository.ts&#45;&gt;src/user/port/out/user.db.query.ts</title>
<path fill="none" stroke="#000000" stroke-width="2" stroke-opacity="0.200000" d="M377.26,-307.76C383.21,-304.6 388.84,-300.43 392.75,-295 407.94,-273.87 382.82,-255.86 400.75,-237 433.6,-202.45 462.76,-236.81 506.12,-217 526.72,-207.59 546.6,-190.69 559.53,-178.3"/>
<polygon fill="#000000" fill-opacity="0.200000" stroke="#000000" stroke-width="2" stroke-opacity="0.200000" points="560.67,-180.12 563.48,-174.41 557.73,-177.13 560.67,-180.12"/>
</g>
<!-- src/user/port/out/user.db.ts&#45;&gt;src/user/port/out/user.db.query.ts -->
<g id="edge20" class="edge">
<title>src/user/port/out/user.db.ts&#45;&gt;src/user/port/out/user.db.query.ts</title>
<path fill="none" stroke="#000000" stroke-width="2" stroke-opacity="0.200000" d="M485,-163C497.05,-163 511.59,-163 525.4,-163"/>
<polygon fill="#000000" fill-opacity="0.200000" stroke="#000000" stroke-width="2" stroke-opacity="0.200000" points="525.32,-165.1 531.32,-163 525.32,-160.9 525.32,-165.1"/>
</g>
<!-- src/user/domain/user.service.ts&#45;&gt;src/user/port/in/user.usecase.command.ts -->
<g id="edge17" class="edge">
<title>src/user/domain/user.service.ts&#45;&gt;src/user/port/in/user.usecase.command.ts</title>
<path fill="none" stroke="#000000" stroke-width="2" stroke-opacity="0.200000" d="M385.11,-125.79C387.93,-124.22 390.53,-122.31 392.75,-120 402.9,-109.42 389.19,-97.02 400.75,-88 443.1,-54.94 510.23,-74.96 547.39,-90.33"/>
<polygon fill="#000000" fill-opacity="0.200000" stroke="#000000" stroke-width="2" stroke-opacity="0.200000" points="546.16,-92.09 552.51,-92.52 547.82,-88.23 546.16,-92.09"/>
</g>
<!-- src/user/domain/user.service.ts&#45;&gt;src/user/port/in/user.usecase.ts -->
<g id="edge16" class="edge">
<title>src/user/domain/user.service.ts&#45;&gt;src/user/port/in/user.usecase.ts</title>
<path fill="none" stroke="#000000" stroke-width="2" stroke-opacity="0.200000" d="M381.81,-123.67C391.88,-120.85 403.08,-117.71 413.65,-114.76"/>
<polygon fill="#000000" fill-opacity="0.200000" stroke="#000000" stroke-width="2" stroke-opacity="0.200000" points="414.21,-116.78 419.42,-113.14 413.08,-112.73 414.21,-116.78"/>
</g>
<!-- src/user/domain/user.service.ts&#45;&gt;src/user/port/out/user.db.ts -->
<g id="edge18" class="edge">
<title>src/user/domain/user.service.ts&#45;&gt;src/user/port/out/user.db.ts</title>
<path fill="none" stroke="#000000" stroke-width="2" stroke-opacity="0.200000" d="M381.81,-142.33C393.87,-145.7 407.53,-149.53 419.8,-152.97"/>
<polygon fill="#000000" fill-opacity="0.200000" stroke="#000000" stroke-width="2" stroke-opacity="0.200000" points="419.18,-154.98 425.53,-154.57 420.32,-150.93 419.18,-154.98"/>
</g>
</g>
</svg>
